# Blender3D v249 OBJ File: 
# www.blender3d.org
mtllib dec-paddle-width.mtl
v 0.250000 -0.250000 -0.250000
v 0.250000 -0.250000 0.250000
v -0.250000 -0.250000 0.250000
v -0.250000 -0.250000 -0.250000
v 0.250000 0.250000 -0.250000
v 0.250000 0.250000 0.250000
v -0.250000 0.250000 0.250000
v -0.250000 0.250000 -0.250000
v 0.250000 0.250000 0.250000
v 0.250000 0.250000 -0.250000
v 0.250000 -0.250000 0.250000
v 0.250000 -0.250000 -0.250000
v 0.641530 0.118603 -0.083984
v 0.641891 0.140386 -0.057437
v 0.642160 0.156573 -0.027150
v 0.642326 0.166541 0.005714
v 0.642382 0.169906 0.039891
v 0.642326 0.166541 0.074068
v 0.642160 0.156573 0.106931
v 0.641891 0.140386 0.137218
v 0.641530 0.118603 0.163765
v 0.641089 0.092059 0.185552
v 0.640586 0.061776 0.201741
v 0.640040 0.028917 0.211710
v 0.639473 -0.005255 0.215076
v 0.638905 -0.039427 0.211710
v 0.638359 -0.072286 0.201741
v 0.637856 -0.102569 0.185552
v 0.637416 -0.129112 0.163765
v 0.637054 -0.150896 0.137218
v 0.636785 -0.167083 0.106931
v 0.636620 -0.177050 0.074068
v 0.636564 -0.180416 0.039891
v 0.636620 -0.177050 0.005714
v 0.636785 -0.167082 -0.027150
v 0.637054 -0.150896 -0.057437
v 0.637416 -0.129112 -0.083984
v 0.637856 -0.102569 -0.105771
v 0.638359 -0.072286 -0.121959
v 0.638905 -0.039427 -0.131928
v 0.639473 -0.005255 -0.135294
v 0.640040 0.028918 -0.131928
v 0.640586 0.061777 -0.121959
v 0.641089 0.092060 -0.105770
v 0.289150 0.000563 0.039891
v 0.639473 -0.005255 0.039891
v -0.628781 -0.121399 0.583662
v -0.628515 -0.094047 0.604391
v -0.628373 -0.063177 0.619387
v -0.628360 -0.029974 0.628074
v -0.628477 0.004285 0.630117
v -0.628719 0.038285 0.625439
v -0.629077 0.070717 0.614218
v -0.629537 0.100336 0.596887
v -0.630082 0.126004 0.574111
v -0.630690 0.146735 0.546766
v -0.631338 0.161731 0.515902
v -0.632002 0.170416 0.482705
v -0.632655 0.172457 0.448452
v -0.633273 0.167775 0.414458
v -0.633832 0.156550 0.382030
v -0.634310 0.139213 0.352414
v -0.634690 0.116431 0.326748
v -0.634956 0.089079 0.306019
v -0.635098 0.058209 0.291023
v -0.635111 0.025006 0.282337
v -0.634994 -0.009253 0.280293
v -0.634752 -0.043252 0.284972
v -0.634394 -0.075685 0.296192
v -0.633934 -0.105304 0.313523
v -0.633389 -0.130972 0.336299
v -0.632781 -0.151702 0.363645
v -0.632133 -0.166698 0.394509
v -0.631469 -0.175383 0.427705
v -0.630816 -0.177424 0.461959
v -0.630198 -0.172742 0.495953
v -0.629639 -0.161517 0.528381
v -0.629161 -0.144181 0.557996
v -0.281654 -0.000898 0.448622
v -0.631735 -0.002484 0.455205
vn -0.000000 -1.000000 0.000000
vn 0.000000 1.000000 -0.000000
vn -0.000000 -0.000000 1.000000
vn -1.000000 -0.000000 -0.000000
vn 0.000000 0.000000 -1.000000
vn 0.000000 0.000000 0.000000
vn 1.000000 0.000000 0.000000
vn -0.433935 0.699368 -0.567965
vn -0.432316 0.796860 -0.422038
vn -0.431201 0.864016 -0.259888
vn -0.430632 0.898251 -0.087753
vn -0.430632 0.898251 0.087753
vn -0.431201 0.864016 0.259888
vn -0.432316 0.796861 0.422038
vn -0.433935 0.699367 0.567966
vn -0.435996 0.575285 0.692065
vn -0.438419 0.429375 0.789573
vn -0.441112 0.267250 0.856737
vn -0.443970 0.095138 0.890977
vn -0.446884 -0.080344 0.890977
vn -0.449742 -0.252457 0.856736
vn -0.452435 -0.414579 0.789574
vn -0.454858 -0.560489 0.692067
vn -0.456919 -0.684574 0.567964
vn -0.458538 -0.782068 0.422034
vn -0.459653 -0.849221 0.259889
vn -0.460222 -0.883456 0.087754
vn -0.460222 -0.883456 -0.087758
vn -0.459653 -0.849221 -0.259889
vn -0.458538 -0.782068 -0.422035
vn -0.456919 -0.684572 -0.567967
vn -0.454858 -0.560490 -0.692066
vn -0.452435 -0.414580 -0.789574
vn -0.449742 -0.252453 -0.856737
vn -0.446884 -0.080342 -0.890977
vn -0.443970 0.095139 -0.890977
vn -0.441112 0.267251 -0.856736
vn -0.438419 0.429378 -0.789571
vn -0.435996 0.575284 -0.692067
vn 0.999862 -0.016603 0.000002
vn 0.999862 -0.016605 -0.000000
vn 0.999862 -0.016605 -0.000001
vn 0.999862 -0.016605 0.000001
vn 0.999862 -0.016603 -0.000002
vn 0.999862 -0.016606 0.000000
vn 0.999862 -0.016603 -0.000001
vn 0.999862 -0.016604 0.000000
vn 0.461268 -0.538757 0.704963
vn 0.462316 -0.389171 0.796749
vn 0.462715 -0.224548 0.857597
vn 0.462448 -0.051220 0.885166
vn 0.461526 0.124155 0.878396
vn 0.459985 0.294833 0.837548
vn 0.457884 0.454263 0.764191
vn 0.455303 0.596311 0.661145
vn 0.452341 0.715519 0.532372
vn 0.449113 0.807311 0.382814
vn 0.445743 0.868154 0.218227
vn 0.442359 0.895712 0.044927
vn 0.439093 0.888926 -0.130415
vn 0.436069 0.848056 -0.301072
vn 0.433404 0.774674 -0.460480
vn 0.431200 0.671600 -0.602512
vn 0.429542 0.542793 -0.721713
vn 0.428494 0.393203 -0.813501
vn 0.428095 0.228582 -0.874348
vn 0.428362 0.055254 -0.901916
vn 0.429283 -0.120120 -0.895146
vn 0.430825 -0.290800 -0.854298
vn 0.432926 -0.450228 -0.780942
vn 0.435507 -0.592277 -0.677895
vn 0.438469 -0.711485 -0.549121
vn 0.441697 -0.803276 -0.399564
vn 0.445067 -0.864119 -0.234975
vn 0.448451 -0.891677 -0.061678
vn 0.451717 -0.884891 0.113665
vn 0.454741 -0.844021 0.284323
vn 0.457406 -0.770638 0.443730
vn 0.459610 -0.667564 0.585762
vn -0.999813 -0.004529 0.018800
vn -0.999813 -0.004527 0.018801
vn -0.999813 -0.004531 0.018800
vn -0.999813 -0.004527 0.018800
vn -0.999813 -0.004528 0.018800
vn -0.999813 -0.004530 0.018801
vn -0.999813 -0.004529 0.018799
vn -0.999813 -0.004529 0.018802
vn -0.999813 -0.004528 0.018803
vn -0.999813 -0.004531 0.018798
vn -0.999813 -0.004528 0.018802
vn -0.999813 -0.004530 0.018800
vn -0.999813 -0.004529 0.018801
vn -0.999813 -0.004528 0.018799
vn -0.999813 -0.004528 0.018801
usemtl Material
s off
f 1//1 2//1 3//1 4//1
f 5//2 8//2 7//2 6//2
f 2//3 6//3 7//3 3//3
f 3//4 7//4 8//4 4//4
f 5//5 1//5 4//5 8//5
f 5//6 6//6 9//6 10//6
f 6//6 2//6 11//6 9//6
f 1//6 5//6 10//6 12//6
f 2//6 1//6 12//6 11//6
f 12//7 10//7 9//7 11//7
f 45//8 14//8 13//8
f 45//9 15//9 14//9
f 45//10 16//10 15//10
f 45//11 17//11 16//11
f 45//12 18//12 17//12
f 45//13 19//13 18//13
f 45//14 20//14 19//14
f 45//15 21//15 20//15
f 45//16 22//16 21//16
f 45//17 23//17 22//17
f 45//18 24//18 23//18
f 45//19 25//19 24//19
f 45//20 26//20 25//20
f 45//21 27//21 26//21
f 45//22 28//22 27//22
f 45//23 29//23 28//23
f 45//24 30//24 29//24
f 45//25 31//25 30//25
f 45//26 32//26 31//26
f 45//27 33//27 32//27
f 45//28 34//28 33//28
f 45//29 35//29 34//29
f 45//30 36//30 35//30
f 45//31 37//31 36//31
f 45//32 38//32 37//32
f 45//33 39//33 38//33
f 45//34 40//34 39//34
f 45//35 41//35 40//35
f 45//36 42//36 41//36
f 45//37 43//37 42//37
f 45//38 44//38 43//38
f 45//39 13//39 44//39
f 46//40 13//40 14//40
f 46//41 14//41 15//41
f 46//42 15//42 16//42
f 46//41 16//41 17//41
f 46//41 17//41 18//41
f 46//43 18//43 19//43
f 46//41 19//41 20//41
f 46//44 20//44 21//44
f 46//45 21//45 22//45
f 46//45 22//45 23//45
f 46//46 23//46 24//46
f 46//45 24//45 25//45
f 46//41 25//41 26//41
f 46//47 26//47 27//47
f 46//45 27//45 28//45
f 46//45 28//45 29//45
f 46//40 29//40 30//40
f 46//41 30//41 31//41
f 46//42 31//42 32//42
f 46//41 32//41 33//41
f 46//41 33//41 34//41
f 46//43 34//43 35//43
f 46//41 35//41 36//41
f 46//44 36//44 37//44
f 46//45 37//45 38//45
f 46//45 38//45 39//45
f 46//47 39//47 40//47
f 46//41 40//41 41//41
f 46//41 41//41 42//41
f 46//47 42//47 43//47
f 46//45 43//45 44//45
f 46//45 44//45 13//45
f 79//48 48//48 47//48
f 79//49 49//49 48//49
f 79//50 50//50 49//50
f 79//51 51//51 50//51
f 79//52 52//52 51//52
f 79//53 53//53 52//53
f 79//54 54//54 53//54
f 79//55 55//55 54//55
f 79//56 56//56 55//56
f 79//57 57//57 56//57
f 79//58 58//58 57//58
f 79//59 59//59 58//59
f 79//60 60//60 59//60
f 79//61 61//61 60//61
f 79//62 62//62 61//62
f 79//63 63//63 62//63
f 79//64 64//64 63//64
f 79//65 65//65 64//65
f 79//66 66//66 65//66
f 79//67 67//67 66//67
f 79//68 68//68 67//68
f 79//69 69//69 68//69
f 79//70 70//70 69//70
f 79//71 71//71 70//71
f 79//72 72//72 71//72
f 79//73 73//73 72//73
f 79//74 74//74 73//74
f 79//75 75//75 74//75
f 79//76 76//76 75//76
f 79//77 77//77 76//77
f 79//78 78//78 77//78
f 79//79 47//79 78//79
f 80//80 47//80 48//80
f 80//81 48//81 49//81
f 80//82 49//82 50//82
f 80//83 50//83 51//83
f 80//80 51//80 52//80
f 80//84 52//84 53//84
f 80//85 53//85 54//85
f 80//80 54//80 55//80
f 80//85 55//85 56//85
f 80//86 56//86 57//86
f 80//86 57//86 58//86
f 80//87 58//87 59//87
f 80//80 59//80 60//80
f 80//80 60//80 61//80
f 80//88 61//88 62//88
f 80//89 62//89 63//89
f 80//90 63//90 64//90
f 80//91 64//91 65//91
f 80//81 65//81 66//81
f 80//92 66//92 67//92
f 80//92 67//92 68//92
f 80//84 68//84 69//84
f 80//92 69//92 70//92
f 80//92 70//92 71//92
f 80//84 71//84 72//84
f 80//84 72//84 73//84
f 80//93 73//93 74//93
f 80//90 74//90 75//90
f 80//93 75//93 76//93
f 80//90 76//90 77//90
f 80//94 77//94 78//94
f 80//86 78//86 47//86
