# Blender3D v249 OBJ File: 
# www.blender3d.org
mtllib sticky-paddle-bonus.mtl
v 0.415551 0.505538 -0.162939
v 0.415551 -0.505209 -0.162939
v 0.642894 -0.505209 -0.162939
v 0.642894 0.505539 -0.162939
v 0.415551 0.505538 0.162939
v 0.415551 -0.505210 0.162939
v 0.642894 -0.505209 0.162939
v 0.642894 0.505538 0.162939
v 0.337228 0.639807 -0.157127
v 0.486247 0.734914 -0.162939
v 0.337228 0.639807 0.168752
v 0.486247 0.734914 0.162939
v 0.125714 0.724412 -0.157127
v 0.125714 0.724412 0.168752
v 0.190128 0.853362 -0.162939
v 0.190128 0.853362 0.162939
v -0.000234 0.882974 0.162939
v -0.000234 0.882974 -0.162939
v 0.003036 0.732873 0.168752
v 0.003036 0.732873 -0.157127
vn 0.000000 0.000000 1.000000
vn 0.000000 0.000000 -1.000000
vn 1.000000 0.000000 -0.000000
vn -0.000001 1.000000 0.000000
vn -1.000000 -0.000000 0.000000
vn -0.016746 0.005161 -0.999846
vn -0.863779 -0.503871 -0.000001
vn 0.825801 0.563962 0.000000
vn -0.371390 -0.928477 -0.000001
vn 0.371391 0.928477 0.000000
vn 0.153707 0.988116 0.000000
vn -0.068802 -0.997630 -0.000001
vn 0.016746 -0.005161 0.999846
vn 0.015015 0.037538 0.999182
vn 0.004931 0.040544 0.999166
vn -0.015015 -0.037538 -0.999182
vn -0.004931 -0.040544 -0.999166
usemtl Material
s off
f 1//1 2//1 3//1 4//1
f 5//2 8//2 7//2 6//2
f 1//3 5//3 6//3 2//3
f 2//4 6//4 7//4 3//4
f 3//5 7//5 8//5 4//5
f 4//6 1//6 9//6 10//6
f 1//7 5//7 11//7 9//7
f 8//8 4//8 10//8 12//8
f 9//9 11//9 14//9 13//9
f 12//10 10//10 15//10 16//10
f 16//11 15//11 18//11 17//11
f 13//12 14//12 19//12 20//12
f 5//13 8//13 12//13 11//13
f 11//14 12//14 16//14 14//14
f 14//15 16//15 17//15 19//15
f 9//16 13//16 15//16 10//16
f 13//17 20//17 18//17 15//17
v -0.414673 0.505374 -0.162939
v -0.414673 -0.505374 -0.162939
v -0.642016 -0.505374 -0.162939
v -0.642016 0.505374 -0.162939
v -0.414673 0.505374 0.162939
v -0.414674 -0.505374 0.162939
v -0.642016 -0.505374 0.162939
v -0.642016 0.505374 0.162939
v -0.336350 0.639643 -0.157127
v -0.485369 0.734750 -0.162939
v -0.336350 0.639642 0.168752
v -0.485369 0.734750 0.162939
v -0.124837 0.724248 -0.157127
v -0.124836 0.724248 0.168752
v -0.189251 0.853197 -0.162939
v -0.189251 0.853197 0.162939
v 0.001112 0.882809 0.162939
v 0.001112 0.882809 -0.162939
v -0.002159 0.732708 0.168752
v -0.002159 0.732709 -0.157127
vn -0.000001 -1.000000 -0.000000
vn -0.016746 -0.005161 0.999846
vn -0.863779 0.503871 0.000001
vn 0.825801 -0.563962 -0.000000
vn -0.371390 0.928477 0.000001
vn 0.371391 -0.928477 -0.000000
vn 0.153707 -0.988116 -0.000000
vn -0.068802 0.997630 0.000001
vn 0.016746 0.005161 -0.999846
vn 0.015015 -0.037538 -0.999182
vn 0.004931 -0.040544 -0.999166
vn -0.015015 0.037538 0.999182
vn -0.004931 0.040544 0.999166
usemtl Material
s off
f 21//2 22//2 23//2 24//2
f 25//1 28//1 27//1 26//1
f 21//3 25//3 26//3 22//3
f 22//18 26//18 27//18 23//18
f 23//5 27//5 28//5 24//5
f 24//19 21//19 29//19 30//19
f 21//20 25//20 31//20 29//20
f 28//21 24//21 30//21 32//21
f 29//22 31//22 34//22 33//22
f 32//23 30//23 35//23 36//23
f 36//24 35//24 38//24 37//24
f 33//25 34//25 39//25 40//25
f 25//26 28//26 32//26 31//26
f 31//27 32//27 36//27 34//27
f 34//28 36//28 37//28 39//28
f 29//29 33//29 35//29 30//29
f 33//30 40//30 38//30 35//30
