# Blender3D v249 OBJ File: 
# www.blender3d.org
mtllib bottom_wall.mtl
v -8.180079 0.442234 -0.366577
v -7.818278 0.174710 -0.094696
v -8.318271 0.012274 -0.097460
v -8.627291 0.437532 -0.090224
v -8.318271 0.862791 -0.082989
v -7.818278 0.700354 -0.085753
v -8.041886 0.004666 0.349691
v -8.541879 0.167103 0.352454
v -8.541879 0.692747 0.361398
v -8.041886 0.855183 0.364161
v -7.732866 0.429925 0.356926
v -8.180079 0.425223 0.633278
v -7.967417 0.286480 -0.294543
v -8.261307 0.191002 -0.296168
v -8.048644 0.033753 -0.136361
v -7.967417 0.595447 -0.289286
v -7.754755 0.438200 -0.129479
v -8.442944 0.440964 -0.291913
v -8.524173 0.188238 -0.133732
v -8.261307 0.690925 -0.287662
v -8.524173 0.688162 -0.125226
v -8.048644 0.842647 -0.122599
v -7.704550 0.588212 0.135979
v -7.704550 0.279244 0.130722
v -7.886186 0.029279 0.126470
v -8.180079 -0.066199 0.124845
v -8.473971 0.029279 0.126470
v -8.655607 0.279244 0.130722
v -8.655607 0.588212 0.135979
v -8.473971 0.838178 0.140232
v -8.180079 0.933656 0.141856
v -7.886186 0.838178 0.140232
v -7.835984 0.179294 0.391928
v -8.311513 0.024809 0.389300
v -8.605402 0.429257 0.396181
v -8.311513 0.833704 0.403063
v -7.835984 0.679219 0.400434
v -7.917213 0.426493 0.558615
v -8.098850 0.176532 0.554364
v -8.392740 0.272010 0.555988
v -8.392740 0.580976 0.561245
v -8.098850 0.676454 0.562869
vn 0.471317 -0.571780 -0.671512
vn 0.187594 -0.563744 -0.804364
vn -0.038547 -0.737424 -0.674329
vn 0.102381 -0.298994 -0.948747
vn 0.700228 -0.256754 -0.666152
vn 0.607060 0.013518 -0.794541
vn 0.700228 0.279266 -0.657032
vn 0.331305 0.016051 -0.943387
vn -0.408939 -0.617096 -0.672280
vn -0.491120 -0.343251 -0.800612
vn -0.724045 -0.183451 -0.664910
vn -0.268034 -0.178657 -0.946699
vn -0.724045 0.205963 -0.658284
vn -0.491121 0.370288 -0.788472
vn -0.408939 0.639609 -0.650899
vn -0.268034 0.210759 -0.940074
vn -0.038547 0.759937 -0.648853
vn 0.187594 0.590780 -0.784721
vn 0.471317 0.594292 -0.651672
vn 0.102381 0.331095 -0.938027
vn 0.904981 -0.262389 -0.334904
vn 0.982246 0.003191 -0.187571
vn 0.992077 -0.002137 0.125611
vn 0.904981 0.273630 -0.325785
vn 0.024726 -0.937762 -0.346398
vn 0.303531 -0.930845 -0.203462
vn 0.306568 -0.945520 0.109583
vn 0.534590 -0.772118 -0.343580
vn -0.889698 -0.309426 -0.335699
vn -0.794656 -0.574072 -0.197390
vn -0.802607 -0.585177 0.115709
vn -0.574583 -0.743064 -0.343088
vn -0.574584 0.754305 -0.317612
vn -0.794656 0.580455 -0.177748
vn -0.802607 0.580903 0.135549
vn -0.889697 0.320667 -0.324979
vn 0.534590 0.783359 -0.317115
vn 0.303531 0.937227 -0.171679
vn 0.306568 0.941245 0.141684
vn 0.024726 0.949003 -0.314297
vn 0.889698 -0.320667 0.324977
vn 0.794656 -0.580455 0.177746
vn 0.574583 -0.754306 0.317612
vn 0.802608 -0.580903 -0.135549
vn -0.024726 -0.949003 0.314297
vn -0.303531 -0.937227 0.171679
vn -0.534590 -0.783359 0.317115
vn -0.306568 -0.941245 -0.141684
vn -0.904981 -0.273628 0.325785
vn -0.982246 -0.003191 0.187572
vn -0.904981 0.262388 0.334905
vn -0.992077 0.002137 -0.125613
vn -0.534590 0.772119 0.343580
vn -0.303531 0.930845 0.203462
vn -0.024726 0.937762 0.346398
vn -0.306568 0.945520 -0.109583
vn 0.574583 0.743065 0.343087
vn 0.794656 0.574073 0.197389
vn 0.889698 0.309427 0.335697
vn 0.802607 0.585177 -0.115709
vn 0.408939 -0.639609 0.650899
vn 0.491120 -0.370287 0.788472
vn 0.268034 -0.210758 0.940074
vn 0.724044 -0.205963 0.658285
vn -0.471317 -0.594293 0.651672
vn -0.187594 -0.590780 0.784721
vn -0.102381 -0.331095 0.938027
vn 0.038547 -0.759937 0.648853
vn -0.700229 0.256753 0.666151
vn -0.607062 -0.013518 0.794539
vn -0.331304 -0.016050 0.943388
vn -0.700229 -0.279265 0.657031
vn 0.038547 0.737424 0.674329
vn -0.187594 0.563744 0.804364
vn -0.102381 0.298994 0.948747
vn -0.471317 0.571781 0.671511
vn 0.724044 0.183450 0.664911
vn 0.491120 0.343251 0.800612
vn 0.268034 0.178657 0.946699
vn 0.408939 0.617097 0.672280
usemtl Material.002
s off
f 15//1 13//1 2//1
f 13//2 15//2 14//2
f 3//3 14//3 15//3
f 14//4 1//4 13//4
f 17//5 2//5 13//5
f 13//6 16//6 17//6
f 6//7 17//7 16//7
f 13//8 1//8 16//8
f 19//9 14//9 3//9
f 14//10 19//10 18//10
f 4//11 18//11 19//11
f 18//12 1//12 14//12
f 21//13 18//13 4//13
f 18//14 21//14 20//14
f 5//15 20//15 21//15
f 20//16 1//16 18//16
f 22//17 20//17 5//17
f 20//18 22//18 16//18
f 6//19 16//19 22//19
f 16//20 1//20 20//20
f 24//21 2//21 17//21
f 17//22 23//22 24//22
f 11//23 24//23 23//23
f 23//24 17//24 6//24
f 26//25 3//25 15//25
f 15//26 25//26 26//26
f 7//27 26//27 25//27
f 25//28 15//28 2//28
f 28//29 4//29 19//29
f 19//30 27//30 28//30
f 8//31 28//31 27//31
f 27//32 19//32 3//32
f 30//33 5//33 21//33
f 21//34 29//34 30//34
f 9//35 30//35 29//35
f 29//36 21//36 4//36
f 32//37 6//37 22//37
f 22//38 31//38 32//38
f 10//39 32//39 31//39
f 31//40 22//40 5//40
f 33//41 24//41 11//41
f 24//42 33//42 25//42
f 7//43 25//43 33//43
f 25//44 2//44 24//44
f 34//45 26//45 7//45
f 26//46 34//46 27//46
f 8//47 27//47 34//47
f 27//48 3//48 26//48
f 35//49 28//49 8//49
f 28//50 35//50 29//50
f 9//51 29//51 35//51
f 29//52 4//52 28//52
f 36//53 30//53 9//53
f 30//54 36//54 31//54
f 10//55 31//55 36//55
f 31//56 5//56 30//56
f 37//57 32//57 10//57
f 32//58 37//58 23//58
f 11//59 23//59 37//59
f 23//60 6//60 32//60
f 39//61 7//61 33//61
f 33//62 38//62 39//62
f 12//63 39//63 38//63
f 38//64 33//64 11//64
f 40//65 8//65 34//65
f 34//66 39//66 40//66
f 12//67 40//67 39//67
f 39//68 34//68 7//68
f 41//69 9//69 35//69
f 35//70 40//70 41//70
f 12//71 41//71 40//71
f 40//72 35//72 8//72
f 42//73 10//73 36//73
f 36//74 41//74 42//74
f 12//75 42//75 41//75
f 41//76 36//76 9//76
f 38//77 11//77 37//77
f 37//78 42//78 38//78
f 12//79 38//79 42//79
f 42//80 37//80 10//80
v 8.095913 0.442234 -0.366577
v 8.457713 0.174710 -0.094696
v 7.957720 0.012274 -0.097460
v 7.648700 0.437532 -0.090224
v 7.957720 0.862791 -0.082989
v 8.457713 0.700354 -0.085753
v 8.234105 0.004666 0.349691
v 7.734113 0.167103 0.352454
v 7.734113 0.692746 0.361398
v 8.234105 0.855183 0.364161
v 8.543125 0.429924 0.356926
v 8.095913 0.425223 0.633278
v 8.308575 0.286480 -0.294543
v 8.014685 0.191002 -0.296168
v 8.227347 0.033753 -0.136361
v 8.308575 0.595447 -0.289286
v 8.521236 0.438200 -0.129479
v 7.833048 0.440964 -0.291913
v 7.751818 0.188238 -0.133732
v 8.014685 0.690925 -0.287662
v 7.751818 0.688162 -0.125226
v 8.227347 0.842647 -0.122599
v 8.571442 0.588212 0.135979
v 8.571442 0.279244 0.130723
v 8.389806 0.029278 0.126470
v 8.095913 -0.066199 0.124845
v 7.802020 0.029278 0.126470
v 7.620384 0.279244 0.130723
v 7.620384 0.588212 0.135979
v 7.802020 0.838178 0.140232
v 8.095913 0.933656 0.141857
v 8.389806 0.838178 0.140232
v 8.440007 0.179294 0.391928
v 7.964478 0.024809 0.389300
v 7.670589 0.429257 0.396181
v 7.964478 0.833704 0.403063
v 8.440007 0.679219 0.400434
v 8.358778 0.426493 0.558615
v 8.177141 0.176531 0.554364
v 7.883252 0.272010 0.555988
v 7.883252 0.580976 0.561245
v 8.177141 0.676454 0.562869
vn 0.471317 -0.571781 -0.671511
vn 0.700229 -0.256753 -0.666151
vn 0.607062 0.013518 -0.794539
vn 0.700229 0.279265 -0.657031
vn 0.331304 0.016051 -0.943388
vn -0.408939 -0.617096 -0.672281
vn -0.724044 -0.183450 -0.664911
vn -0.724044 0.205963 -0.658285
vn -0.491120 0.370287 -0.788472
vn -0.408939 0.639608 -0.650900
vn 0.471317 0.594293 -0.651672
vn 0.904981 -0.262388 -0.334905
vn 0.982246 0.003191 -0.187572
vn 0.992077 -0.002137 0.125613
vn 0.904981 0.273628 -0.325785
vn -0.889698 -0.309427 -0.335697
vn -0.794656 -0.574073 -0.197389
vn -0.574584 -0.743064 -0.343087
vn -0.574584 0.754305 -0.317611
vn -0.794656 0.580455 -0.177746
vn -0.889698 0.320667 -0.324977
vn 0.889698 -0.320667 0.324978
vn 0.794656 -0.580455 0.177747
vn 0.574583 -0.754305 0.317612
vn -0.306568 -0.941245 -0.141683
vn -0.904981 -0.273630 0.325784
vn -0.982246 -0.003191 0.187571
vn -0.904981 0.262389 0.334904
vn -0.992077 0.002137 -0.125611
vn -0.534590 0.772118 0.343580
vn 0.574583 0.743064 0.343088
vn 0.794656 0.574072 0.197390
vn 0.889698 0.309426 0.335699
vn 0.802607 0.585177 -0.115710
vn 0.491121 -0.370288 0.788472
vn 0.724045 -0.205963 0.658284
vn -0.471317 -0.594292 0.651672
vn -0.700228 0.256754 0.666152
vn -0.607060 -0.013518 0.794541
vn -0.331305 -0.016050 0.943387
vn -0.700228 -0.279266 0.657032
vn -0.187594 0.563743 0.804364
vn -0.471317 0.571780 0.671512
vn 0.724045 0.183451 0.664910
vn 0.491120 0.343252 0.800612
vn 0.268034 0.178658 0.946699
vn 0.408939 0.617096 0.672280
usemtl Material
s off
f 57//81 55//81 44//81
f 55//2 57//2 56//2
f 45//3 56//3 57//3
f 56//4 43//4 55//4
f 59//82 44//82 55//82
f 55//83 58//83 59//83
f 48//84 59//84 58//84
f 55//85 43//85 58//85
f 61//86 56//86 45//86
f 56//10 61//10 60//10
f 46//87 60//87 61//87
f 60//12 43//12 56//12
f 63//88 60//88 46//88
f 60//89 63//89 62//89
f 47//90 62//90 63//90
f 62//16 43//16 60//16
f 64//17 62//17 47//17
f 62//18 64//18 58//18
f 48//91 58//91 64//91
f 58//20 43//20 62//20
f 66//92 44//92 59//92
f 59//93 65//93 66//93
f 53//94 66//94 65//94
f 65//95 59//95 48//95
f 68//25 45//25 57//25
f 57//26 67//26 68//26
f 49//27 68//27 67//27
f 67//28 57//28 44//28
f 70//96 46//96 61//96
f 61//97 69//97 70//97
f 50//31 70//31 69//31
f 69//98 61//98 45//98
f 72//99 47//99 63//99
f 63//100 71//100 72//100
f 51//35 72//35 71//35
f 71//101 63//101 46//101
f 74//37 48//37 64//37
f 64//38 73//38 74//38
f 52//39 74//39 73//39
f 73//40 64//40 47//40
f 75//102 66//102 53//102
f 66//103 75//103 67//103
f 49//104 67//104 75//104
f 67//44 44//44 66//44
f 76//45 68//45 49//45
f 68//46 76//46 69//46
f 50//47 69//47 76//47
f 69//105 45//105 68//105
f 77//106 70//106 50//106
f 70//107 77//107 71//107
f 51//108 71//108 77//108
f 71//109 46//109 70//109
f 78//110 72//110 51//110
f 72//54 78//54 73//54
f 52//55 73//55 78//55
f 73//56 47//56 72//56
f 79//111 74//111 52//111
f 74//112 79//112 65//112
f 53//113 65//113 79//113
f 65//114 48//114 74//114
f 81//61 49//61 75//61
f 75//115 80//115 81//115
f 54//63 81//63 80//63
f 80//116 75//116 53//116
f 82//117 50//117 76//117
f 76//66 81//66 82//66
f 54//67 82//67 81//67
f 81//68 76//68 49//68
f 83//118 51//118 77//118
f 77//119 82//119 83//119
f 54//120 83//120 82//120
f 82//121 77//121 50//121
f 84//73 52//73 78//73
f 78//122 83//122 84//122
f 54//75 84//75 83//75
f 83//123 78//123 51//123
f 80//124 53//124 79//124
f 79//125 84//125 80//125
f 54//126 80//126 84//126
f 84//127 79//127 52//127
v -0.000562 0.442126 -0.360254
v 0.361238 0.174603 -0.088373
v -0.138754 0.012166 -0.091137
v -0.447774 0.437425 -0.083901
v -0.138754 0.862683 -0.076666
v 0.361238 0.700247 -0.079430
v 0.137631 0.004558 0.356014
v -0.362362 0.166995 0.358777
v -0.362362 0.692639 0.367721
v 0.137631 0.855075 0.370484
v 0.446651 0.429817 0.363249
v -0.000562 0.425115 0.639601
v 0.212100 0.286373 -0.288220
v -0.081789 0.190895 -0.289845
v 0.130873 0.033645 -0.130038
v 0.212100 0.595339 -0.282963
v 0.424762 0.438092 -0.123156
v -0.263427 0.440856 -0.285590
v -0.344656 0.188130 -0.127409
v -0.081789 0.690818 -0.281339
v -0.344656 0.688055 -0.118903
v 0.130873 0.842540 -0.116276
v 0.474967 0.588105 0.142302
v 0.474967 0.279137 0.137045
v 0.293331 0.029171 0.132793
v -0.000562 -0.066307 0.131168
v -0.294455 0.029171 0.132793
v -0.476091 0.279137 0.137045
v -0.476091 0.588105 0.142302
v -0.294455 0.838071 0.146555
v -0.000562 0.933548 0.148179
v 0.293331 0.838071 0.146555
v 0.343533 0.179187 0.398251
v -0.131996 0.024702 0.395623
v -0.425886 0.429149 0.402504
v -0.131996 0.833596 0.409386
v 0.343533 0.679111 0.406757
v 0.262303 0.426385 0.564938
v 0.080666 0.176424 0.560687
v -0.213223 0.271902 0.562311
v -0.213223 0.580869 0.567568
v 0.080666 0.676347 0.569192
vn 0.471317 -0.571780 -0.671511
vn 0.607061 0.013518 -0.794541
vn 0.700228 0.279267 -0.657032
vn 0.331304 0.016051 -0.943387
vn -0.491119 -0.343251 -0.800612
vn -0.268034 -0.178658 -0.946699
vn -0.491119 0.370288 -0.788472
vn 0.904981 -0.262390 -0.334905
vn 0.904981 0.273631 -0.325786
vn -0.889698 -0.309426 -0.335698
vn -0.802607 -0.585178 0.115711
vn -0.574584 -0.743065 -0.343087
vn -0.574584 0.754306 -0.317611
vn -0.794656 0.580456 -0.177747
vn -0.802607 0.580903 0.135550
vn -0.889698 0.320667 -0.324978
vn 0.794656 -0.580456 0.177747
vn 0.574584 -0.754306 0.317611
vn 0.802607 -0.580903 -0.135550
vn -0.904981 -0.273631 0.325786
vn -0.904981 0.262390 0.334905
vn 0.574584 0.743065 0.343087
vn 0.889698 0.309426 0.335698
vn 0.802607 0.585178 -0.115711
vn 0.408939 -0.639608 0.650900
vn 0.491119 -0.370288 0.788472
vn 0.268034 -0.210759 0.940074
vn -0.471318 -0.594292 0.651672
vn -0.607061 -0.013518 0.794541
vn -0.331305 -0.016051 0.943387
vn -0.700228 -0.279267 0.657032
vn -0.471318 0.571780 0.671511
vn 0.491119 0.343251 0.800612
vn 0.408939 0.617096 0.672281
usemtl Material.001
s off
f 99//128 97//128 86//128
f 97//2 99//2 98//2
f 87//3 98//3 99//3
f 98//4 85//4 97//4
f 101//5 86//5 97//5
f 97//129 100//129 101//129
f 90//130 101//130 100//130
f 97//131 85//131 100//131
f 103//86 98//86 87//86
f 98//132 103//132 102//132
f 88//87 102//87 103//87
f 102//133 85//133 98//133
f 105//88 102//88 88//88
f 102//134 105//134 104//134
f 89//90 104//90 105//90
f 104//16 85//16 102//16
f 106//17 104//17 89//17
f 104//18 106//18 100//18
f 90//91 100//91 106//91
f 100//20 85//20 104//20
f 108//135 86//135 101//135
f 101//22 107//22 108//22
f 95//94 108//94 107//94
f 107//136 101//136 90//136
f 110//25 87//25 99//25
f 99//26 109//26 110//26
f 91//27 110//27 109//27
f 109//28 99//28 86//28
f 112//137 88//137 103//137
f 103//97 111//97 112//97
f 92//138 112//138 111//138
f 111//139 103//139 87//139
f 114//140 89//140 105//140
f 105//141 113//141 114//141
f 93//142 114//142 113//142
f 113//143 105//143 88//143
f 116//37 90//37 106//37
f 106//38 115//38 116//38
f 94//39 116//39 115//39
f 115//40 106//40 89//40
f 117//102 108//102 95//102
f 108//144 117//144 109//144
f 91//145 109//145 117//145
f 109//146 86//146 108//146
f 118//45 110//45 91//45
f 110//46 118//46 111//46
f 92//47 111//47 118//47
f 111//48 87//48 110//48
f 119//147 112//147 92//147
f 112//107 119//107 113//107
f 93//148 113//148 119//148
f 113//52 88//52 112//52
f 120//110 114//110 93//110
f 114//54 120//54 115//54
f 94//55 115//55 120//55
f 115//56 89//56 114//56
f 121//149 116//149 94//149
f 116//58 121//58 107//58
f 95//150 107//150 121//150
f 107//151 90//151 116//151
f 123//152 91//152 117//152
f 117//153 122//153 123//153
f 96//154 123//154 122//154
f 122//64 117//64 95//64
f 124//155 92//155 118//155
f 118//66 123//66 124//66
f 96//67 124//67 123//67
f 123//68 118//68 91//68
f 125//118 93//118 119//118
f 119//156 124//156 125//156
f 96//157 125//157 124//157
f 124//158 119//158 92//158
f 126//73 94//73 120//73
f 120//74 125//74 126//74
f 96//75 126//75 125//75
f 125//159 120//159 93//159
f 122//77 95//77 121//77
f 121//160 126//160 122//160
f 96//126 122//126 126//126
f 126//161 121//161 94//161
v 10.000278 -0.539583 -1.039423
v 9.999636 -0.550009 -0.322612
v -10.000802 -0.553739 -0.333613
v -10.000160 -0.543313 -1.050424
v -9.999826 1.445989 -0.300627
v -9.999182 1.456415 -1.017438
v 10.000373 1.460145 -1.006438
v 9.999729 1.449719 -0.289627
vn 0.000194 -0.999894 -0.014544
vn 1.000000 -0.000062 0.000896
vn -0.000547 -0.016492 0.999864
vn -1.000000 0.000503 -0.000890
vn 0.000547 0.016493 -0.999864
vn -0.000194 0.999894 0.014544
usemtl Material
s off
f 127//162 128//162 129//162 130//162
f 127//163 133//163 134//163 128//163
f 128//164 134//164 131//164 129//164
f 129//165 131//165 132//165 130//165
f 133//166 127//166 130//166 132//166
f 131//167 134//167 133//167 132//167
