# Blender3D v249 OBJ File: 
# www.blender3d.org
mtllib top_wall.mtl
v 10.000278 -0.580604 0.981176
v 9.999636 0.593004 0.979407
v -10.000802 0.582069 0.983323
v -10.000160 -0.591540 0.985092
v -9.999825 0.581031 -1.016677
v -9.999182 -0.592577 -1.014907
v 10.000373 -0.581642 -1.018824
v 9.999729 0.591967 -1.020593
v -0.001338 0.557080 -0.002164
v 0.334584 0.813704 0.241895
v -0.129647 0.813704 0.392735
v -0.416565 0.813704 -0.002164
v -0.129647 0.813704 -0.397064
v 0.334585 0.813704 -0.246224
v 0.126970 1.228933 0.392735
v -0.337261 1.228933 0.241895
v -0.337261 1.228933 -0.246224
v 0.126970 1.228933 -0.397064
v 0.413888 1.228933 -0.002164
v -0.001338 1.485557 -0.002164
v 0.196113 0.626412 0.141291
v -0.076757 0.626412 0.229953
v 0.120695 0.777251 0.373410
v 0.196113 0.626412 -0.145619
v 0.393565 0.777252 -0.002164
v -0.245402 0.626413 -0.002164
v -0.320822 0.777252 0.229953
v -0.076757 0.626412 -0.234281
v -0.320822 0.777252 -0.234282
v 0.120695 0.777251 -0.377739
v 0.440179 1.021319 -0.145620
v 0.440179 1.021319 0.141291
v 0.271534 1.021319 0.373412
v -0.001338 1.021319 0.462074
v -0.274211 1.021319 0.373412
v -0.442856 1.021319 0.141291
v -0.442856 1.021319 -0.145620
v -0.274211 1.021319 -0.377741
v -0.001338 1.021319 -0.466403
v 0.271534 1.021319 -0.377741
v 0.318146 1.265386 0.229953
v -0.123372 1.265386 0.373410
v -0.396242 1.265385 -0.002164
v -0.123372 1.265386 -0.377739
v 0.318146 1.265386 -0.234282
v 0.242725 1.416224 -0.002164
v 0.074080 1.416225 0.229953
v -0.198789 1.416225 0.141291
v -0.198789 1.416225 -0.145619
v 0.074080 1.416225 -0.234281
vn 0.000195 0.001508 0.999999
vn 1.000000 0.000548 0.000047
vn -0.000547 1.000000 -0.000519
vn -1.000000 -0.000548 -0.000488
vn 0.000547 -1.000000 0.000519
vn -0.000195 -0.001508 -0.999999
vn 0.471317 -0.661687 0.583121
vn 0.187594 -0.794658 0.577345
vn -0.038547 -0.661687 0.748789
vn 0.102381 -0.943523 0.315090
vn 0.700228 -0.661688 0.268049
vn 0.607061 -0.794656 -0.000000
vn 0.700228 -0.661688 -0.268049
vn 0.331305 -0.943524 -0.000000
vn -0.408939 -0.661687 0.628443
vn -0.491119 -0.794658 0.356821
vn -0.724044 -0.661694 0.194734
vn -0.268034 -0.943523 0.194737
vn -0.724044 -0.661694 -0.194734
vn -0.491119 -0.794658 -0.356821
vn -0.408939 -0.661686 -0.628443
vn -0.268035 -0.943523 -0.194737
vn -0.038547 -0.661687 -0.748789
vn 0.187594 -0.794658 -0.577345
vn 0.471318 -0.661688 -0.583120
vn 0.102381 -0.943523 -0.315090
vn 0.904981 -0.330393 0.268049
vn 0.982246 -0.187599 0.000000
vn 0.992077 0.125632 0.000000
vn 0.904981 -0.330393 -0.268049
vn 0.024726 -0.330395 0.943519
vn 0.303531 -0.187597 0.934171
vn 0.306568 0.125651 0.943519
vn 0.534590 -0.330395 0.777851
vn -0.889698 -0.330386 0.315092
vn -0.794656 -0.187595 0.577348
vn -0.802607 0.125648 0.583125
vn -0.574584 -0.330397 0.748793
vn -0.574584 -0.330396 -0.748794
vn -0.794655 -0.187595 -0.577348
vn -0.802607 0.125648 -0.583125
vn -0.889698 -0.330386 -0.315091
vn 0.534590 -0.330395 -0.777851
vn 0.303531 -0.187597 -0.934172
vn 0.306568 0.125651 -0.943519
vn 0.024726 -0.330395 -0.943519
vn 0.889698 0.330386 0.315091
vn 0.794656 0.187595 0.577348
vn 0.574583 0.330397 0.748794
vn 0.802607 -0.125649 0.583125
vn -0.024726 0.330395 0.943519
vn -0.303531 0.187597 0.934171
vn -0.534590 0.330395 0.777851
vn -0.306568 -0.125651 0.943519
vn -0.904981 0.330393 0.268049
vn -0.982246 0.187599 0.000000
vn -0.904981 0.330394 -0.268049
vn -0.992077 -0.125632 0.000000
vn -0.534590 0.330395 -0.777851
vn -0.303531 0.187597 -0.934171
vn -0.024726 0.330395 -0.943519
vn -0.306568 -0.125651 -0.943519
vn 0.574584 0.330397 -0.748793
vn 0.794656 0.187595 -0.577348
vn 0.889698 0.330386 -0.315092
vn 0.802607 -0.125648 -0.583125
vn 0.408938 0.661686 0.628443
vn 0.491119 0.794658 0.356821
vn 0.268034 0.943523 0.194736
vn 0.724044 0.661694 0.194734
vn -0.471317 0.661687 0.583121
vn -0.187594 0.794657 0.577345
vn -0.102381 0.943524 0.315090
vn 0.038547 0.661687 0.748789
vn -0.700228 0.661688 -0.268049
vn -0.607061 0.794656 -0.000000
vn -0.331305 0.943524 -0.000000
vn -0.700228 0.661688 0.268049
vn 0.038547 0.661687 -0.748789
vn -0.187595 0.794658 -0.577345
vn -0.102381 0.943524 -0.315090
vn -0.471318 0.661688 -0.583120
vn 0.724044 0.661694 -0.194735
vn 0.491120 0.794657 -0.356821
vn 0.268034 0.943523 -0.194736
vn 0.408939 0.661686 -0.628443
usemtl Material
s off
f 1//1 2//1 3//1 4//1
f 1//2 7//2 8//2 2//2
f 2//3 8//3 5//3 3//3
f 3//4 5//4 6//4 4//4
f 7//5 1//5 4//5 6//5
f 5//6 8//6 7//6 6//6
f 23//7 21//7 10//7
f 21//8 23//8 22//8
f 11//9 22//9 23//9
f 22//10 9//10 21//10
f 25//11 10//11 21//11
f 21//12 24//12 25//12
f 14//13 25//13 24//13
f 24//14 21//14 9//14
f 27//15 22//15 11//15
f 22//16 27//16 26//16
f 12//17 26//17 27//17
f 26//18 9//18 22//18
f 29//19 26//19 12//19
f 26//20 29//20 28//20
f 13//21 28//21 29//21
f 28//22 9//22 26//22
f 30//23 28//23 13//23
f 28//24 30//24 24//24
f 14//25 24//25 30//25
f 24//26 9//26 28//26
f 32//27 10//27 25//27
f 25//28 31//28 32//28
f 19//29 32//29 31//29
f 31//30 25//30 14//30
f 34//31 11//31 23//31
f 23//32 33//32 34//32
f 15//33 34//33 33//33
f 33//34 23//34 10//34
f 36//35 12//35 27//35
f 27//36 35//36 36//36
f 16//37 36//37 35//37
f 35//38 27//38 11//38
f 38//39 13//39 29//39
f 29//40 37//40 38//40
f 17//41 38//41 37//41
f 37//42 29//42 12//42
f 40//43 14//43 30//43
f 30//44 39//44 40//44
f 18//45 40//45 39//45
f 39//46 30//46 13//46
f 41//47 32//47 19//47
f 32//48 41//48 33//48
f 15//49 33//49 41//49
f 33//50 10//50 32//50
f 42//51 34//51 15//51
f 34//52 42//52 35//52
f 16//53 35//53 42//53
f 35//54 11//54 34//54
f 43//55 36//55 16//55
f 36//56 43//56 37//56
f 17//57 37//57 43//57
f 37//58 12//58 36//58
f 44//59 38//59 17//59
f 38//60 44//60 39//60
f 18//61 39//61 44//61
f 39//62 13//62 38//62
f 45//63 40//63 18//63
f 40//64 45//64 31//64
f 19//65 31//65 45//65
f 31//66 14//66 40//66
f 47//67 15//67 41//67
f 41//68 46//68 47//68
f 20//69 47//69 46//69
f 46//70 41//70 19//70
f 48//71 16//71 42//71
f 42//72 47//72 48//72
f 20//73 48//73 47//73
f 47//74 42//74 15//74
f 49//75 17//75 43//75
f 43//76 48//76 49//76
f 20//77 49//77 48//77
f 48//78 43//78 16//78
f 50//79 18//79 44//79
f 44//80 49//80 50//80
f 20//81 50//81 49//81
f 49//82 44//82 17//82
f 46//83 19//83 45//83
f 45//84 50//84 46//84
f 20//85 46//85 50//85
f 50//86 45//86 18//86
