# Blender3D v249 OBJ File: 
# www.blender3d.org
mtllib inc-paddle-width.mtl
o Cube
v 0.250000 -0.250000 -0.250000
v 0.250000 -0.250000 0.250000
v -0.250000 -0.250000 0.250000
v -0.250000 -0.250000 -0.250000
v 0.250000 0.250000 -0.250000
v 0.250000 0.250000 0.250000
v -0.250000 0.250000 0.250000
v -0.250000 0.250000 -0.250000
v 0.250000 0.250000 0.250000
v 0.250000 0.250000 -0.250000
v 0.250000 -0.250000 0.250000
v 0.250000 -0.250000 -0.250000
v 0.305657 -0.129053 -0.083984
v 0.305870 -0.150839 -0.057437
v 0.306028 -0.167027 -0.027150
v 0.306125 -0.176995 0.005714
v 0.306158 -0.180361 0.039891
v 0.306125 -0.176995 0.074068
v 0.306028 -0.167027 0.106931
v 0.305870 -0.150839 0.137218
v 0.305657 -0.129053 0.163765
v 0.305397 -0.102507 0.185552
v 0.305101 -0.072222 0.201741
v 0.304779 -0.039360 0.211710
v 0.304445 -0.005184 0.215076
v 0.304111 0.028991 0.211710
v 0.303790 0.061853 0.201741
v 0.303494 0.092139 0.185552
v 0.303234 0.118685 0.163765
v 0.303021 0.140470 0.137218
v 0.302863 0.156658 0.106931
v 0.302765 0.166627 0.074068
v 0.302732 0.169993 0.039891
v 0.302765 0.166626 0.005714
v 0.302863 0.156658 -0.027150
v 0.303021 0.140470 -0.057437
v 0.303234 0.118684 -0.083984
v 0.303494 0.092139 -0.105771
v 0.303790 0.061853 -0.121959
v 0.304111 0.028991 -0.131928
v 0.304445 -0.005185 -0.135294
v 0.304779 -0.039360 -0.131928
v 0.305101 -0.072222 -0.121959
v 0.305397 -0.102508 -0.105770
v 0.654799 -0.001758 0.039891
v 0.304445 -0.005184 0.039891
v -0.296701 0.116490 0.583662
v -0.297091 0.089140 0.604391
v -0.297373 0.058270 0.619387
v -0.297536 0.025068 0.628074
v -0.297575 -0.009192 0.630117
v -0.297487 -0.043191 0.625439
v -0.297276 -0.075625 0.614218
v -0.296950 -0.105246 0.596887
v -0.296522 -0.130917 0.574111
v -0.296008 -0.151649 0.546766
v -0.295427 -0.166648 0.515902
v -0.294803 -0.175336 0.482705
v -0.294159 -0.177380 0.448452
v -0.293520 -0.172701 0.414458
v -0.292910 -0.161479 0.382030
v -0.292353 -0.144144 0.352414
v -0.291870 -0.121364 0.326748
v -0.291481 -0.094014 0.306019
v -0.291199 -0.063145 0.291023
v -0.291035 -0.029942 0.282337
v -0.290997 0.004317 0.280293
v -0.291085 0.038317 0.284972
v -0.291296 0.070751 0.296192
v -0.291622 0.100372 0.313523
v -0.292050 0.126042 0.336299
v -0.292564 0.146775 0.363645
v -0.293144 0.161774 0.394509
v -0.293769 0.170462 0.427705
v -0.294413 0.172506 0.461959
v -0.295052 0.167826 0.495953
v -0.295662 0.156604 0.528381
v -0.296219 0.139270 0.557996
v -0.644370 -0.002437 0.448622
v -0.294286 -0.002437 0.455205
vn -0.000000 -1.000000 0.000000
vn 0.000000 1.000000 -0.000000
vn -0.000000 -0.000000 1.000000
vn -1.000000 -0.000000 -0.000000
vn 0.000000 0.000000 -1.000000
vn 0.000000 0.000000 0.000000
vn 1.000000 0.000000 0.000000
vn 0.452234 -0.687677 -0.567965
vn 0.453188 -0.785178 -0.422039
vn 0.453845 -0.852340 -0.259888
vn 0.454179 -0.886578 -0.087753
vn 0.454179 -0.886578 0.087753
vn 0.453845 -0.852340 0.259889
vn 0.453188 -0.785178 0.422038
vn 0.452234 -0.687677 0.567966
vn 0.451021 -0.563583 0.692066
vn 0.449594 -0.417659 0.789574
vn 0.448008 -0.255521 0.856737
vn 0.446325 -0.083392 0.890977
vn 0.444609 0.092105 0.890977
vn 0.442926 0.264234 0.856736
vn 0.441340 0.426371 0.789574
vn 0.439913 0.572294 0.692067
vn 0.438700 0.696390 0.567964
vn 0.437746 0.793893 0.422034
vn 0.437090 0.861052 0.259889
vn 0.436755 0.895290 0.087753
vn 0.436755 0.895290 -0.087758
vn 0.437090 0.861052 -0.259889
vn 0.437746 0.793892 -0.422035
vn 0.438700 0.696387 -0.567968
vn 0.439913 0.572294 -0.692066
vn 0.441340 0.426371 -0.789573
vn 0.442926 0.264230 -0.856737
vn 0.444609 0.092104 -0.890977
vn 0.446325 -0.083394 -0.890977
vn 0.448008 -0.255521 -0.856736
vn 0.449594 -0.417663 -0.789571
vn 0.451021 -0.563581 -0.692067
vn -0.999952 -0.009779 0.000000
vn -0.999952 -0.009778 -0.000000
vn -0.458823 0.540841 0.704962
vn -0.460549 0.391261 0.796749
vn -0.461693 0.226642 0.857597
vn -0.462211 0.053313 0.885166
vn -0.462084 -0.122063 0.878396
vn -0.461316 -0.292746 0.837548
vn -0.459937 -0.452184 0.764191
vn -0.457999 -0.594242 0.661145
vn -0.455578 -0.713463 0.532372
vn -0.452765 -0.805268 0.382815
vn -0.449671 -0.866125 0.218227
vn -0.446412 -0.893699 0.044928
vn -0.443115 -0.886928 -0.130416
vn -0.439906 -0.846072 -0.301072
vn -0.436908 -0.772703 -0.460480
vn -0.434238 -0.669639 -0.602512
vn -0.431996 -0.540842 -0.721713
vn -0.430270 -0.391258 -0.813502
vn -0.429126 -0.226641 -0.874348
vn -0.428608 -0.053313 -0.901916
vn -0.428735 0.122063 -0.895146
vn -0.429503 0.292748 -0.854298
vn -0.430883 0.452184 -0.780941
vn -0.432820 0.594244 -0.677895
vn -0.435241 0.713464 -0.549121
vn -0.438054 0.805268 -0.399565
vn -0.441149 0.866126 -0.234976
vn -0.444407 0.893699 -0.061678
vn -0.447704 0.886928 0.113666
vn -0.450913 0.846072 0.284323
vn -0.453911 0.772702 0.443730
vn -0.456581 0.669639 0.585762
vn 0.999823 -0.000000 0.018800
vn 0.999823 -0.000001 0.018801
vn 0.999823 0.000001 0.018800
vn 0.999823 -0.000001 0.018800
vn 0.999823 0.000000 0.018801
vn 0.999823 0.000001 0.018801
usemtl Material
s off
f 1//1 2//1 3//1 4//1
f 5//2 8//2 7//2 6//2
f 2//3 6//3 7//3 3//3
f 3//4 7//4 8//4 4//4
f 5//5 1//5 4//5 8//5
f 5//6 6//6 9//6 10//6
f 6//6 2//6 11//6 9//6
f 1//6 5//6 10//6 12//6
f 2//6 1//6 12//6 11//6
f 12//7 10//7 9//7 11//7
f 45//8 14//8 13//8
f 45//9 15//9 14//9
f 45//10 16//10 15//10
f 45//11 17//11 16//11
f 45//12 18//12 17//12
f 45//13 19//13 18//13
f 45//14 20//14 19//14
f 45//15 21//15 20//15
f 45//16 22//16 21//16
f 45//17 23//17 22//17
f 45//18 24//18 23//18
f 45//19 25//19 24//19
f 45//20 26//20 25//20
f 45//21 27//21 26//21
f 45//22 28//22 27//22
f 45//23 29//23 28//23
f 45//24 30//24 29//24
f 45//25 31//25 30//25
f 45//26 32//26 31//26
f 45//27 33//27 32//27
f 45//28 34//28 33//28
f 45//29 35//29 34//29
f 45//30 36//30 35//30
f 45//31 37//31 36//31
f 45//32 38//32 37//32
f 45//33 39//33 38//33
f 45//34 40//34 39//34
f 45//35 41//35 40//35
f 45//36 42//36 41//36
f 45//37 43//37 42//37
f 45//38 44//38 43//38
f 45//39 13//39 44//39
f 46//40 13//40 14//40
f 46//40 14//40 15//40
f 46//40 15//40 16//40
f 46//41 16//41 17//41
f 46//41 17//41 18//41
f 46//40 18//40 19//40
f 46//40 19//40 20//40
f 46//40 20//40 21//40
f 46//41 21//41 22//41
f 46//40 22//40 23//40
f 46//40 23//40 24//40
f 46//40 24//40 25//40
f 46//41 25//41 26//41
f 46//40 26//40 27//40
f 46//40 27//40 28//40
f 46//41 28//41 29//41
f 46//40 29//40 30//40
f 46//40 30//40 31//40
f 46//40 31//40 32//40
f 46//40 32//40 33//40
f 46//40 33//40 34//40
f 46//40 34//40 35//40
f 46//40 35//40 36//40
f 46//40 36//40 37//40
f 46//41 37//41 38//41
f 46//40 38//40 39//40
f 46//40 39//40 40//40
f 46//40 40//40 41//40
f 46//40 41//40 42//40
f 46//40 42//40 43//40
f 46//41 43//41 44//41
f 46//41 44//41 13//41
f 79//42 48//42 47//42
f 79//43 49//43 48//43
f 79//44 50//44 49//44
f 79//45 51//45 50//45
f 79//46 52//46 51//46
f 79//47 53//47 52//47
f 79//48 54//48 53//48
f 79//49 55//49 54//49
f 79//50 56//50 55//50
f 79//51 57//51 56//51
f 79//52 58//52 57//52
f 79//53 59//53 58//53
f 79//54 60//54 59//54
f 79//55 61//55 60//55
f 79//56 62//56 61//56
f 79//57 63//57 62//57
f 79//58 64//58 63//58
f 79//59 65//59 64//59
f 79//60 66//60 65//60
f 79//61 67//61 66//61
f 79//62 68//62 67//62
f 79//63 69//63 68//63
f 79//64 70//64 69//64
f 79//65 71//65 70//65
f 79//66 72//66 71//66
f 79//67 73//67 72//67
f 79//68 74//68 73//68
f 79//69 75//69 74//69
f 79//70 76//70 75//70
f 79//71 77//71 76//71
f 79//72 78//72 77//72
f 79//73 47//73 78//73
f 80//74 47//74 48//74
f 80//75 48//75 49//75
f 80//76 49//76 50//76
f 80//77 50//77 51//77
f 80//78 51//78 52//78
f 80//74 52//74 53//74
f 80//79 53//79 54//79
f 80//74 54//74 55//74
f 80//78 55//78 56//78
f 80//74 56//74 57//74
f 80//74 57//74 58//74
f 80//74 58//74 59//74
f 80//78 59//78 60//78
f 80//74 60//74 61//74
f 80//78 61//78 62//78
f 80//74 62//74 63//74
f 80//74 63//74 64//74
f 80//74 64//74 65//74
f 80//76 65//76 66//76
f 80//77 66//77 67//77
f 80//74 67//74 68//74
f 80//74 68//74 69//74
f 80//74 69//74 70//74
f 80//74 70//74 71//74
f 80//78 71//78 72//78
f 80//74 72//74 73//74
f 80//74 73//74 74//74
f 80//78 74//78 75//78
f 80//74 75//74 76//74
f 80//74 76//74 77//74
f 80//78 77//78 78//78
f 80//74 78//74 47//74
