# Blender3D v249 OBJ File: 
# www.blender3d.org
mtllib paddle.mtl
v 1.353553 -0.954732 -0.384111
v 1.415735 -0.954732 -0.301794
v 1.461940 -0.954732 -0.207879
v 1.490393 -0.954732 -0.105976
v 1.500000 -0.954732 0.000000
v 1.490393 -0.954732 0.105976
v 1.461940 -0.954732 0.207879
v 1.415735 -0.954732 0.301794
v 1.353553 -0.954732 0.384111
v 1.277785 -0.954732 0.451666
v 1.191342 -0.954732 0.501865
v 1.097545 -0.954732 0.532777
v 1.000000 -0.954732 0.543215
v 0.902455 -0.954732 0.532777
v 0.808658 -0.954732 0.501865
v 0.722215 -0.954732 0.451666
v 0.646446 -0.954732 0.384110
v 0.584265 -0.954732 0.301794
v 0.538060 -0.954732 0.207879
v 0.509607 -0.954732 0.105975
v 0.500000 -0.954732 -0.000000
v 0.509607 -0.954732 -0.105976
v 0.538060 -0.954732 -0.207880
v 0.584266 -0.954732 -0.301794
v 0.646447 -0.954732 -0.384111
v 0.722215 -0.954732 -0.451667
v 0.808659 -0.954732 -0.501865
v 0.902456 -0.954732 -0.532777
v 1.000001 -0.954732 -0.543214
v 1.097546 -0.954732 -0.532777
v 1.191343 -0.954732 -0.501864
v 1.277786 -0.954732 -0.451666
v 1.353554 -0.468617 -0.384110
v 1.415735 -0.468617 -0.301793
v 1.461940 -0.468617 -0.207878
v 1.490393 -0.468617 -0.105975
v 1.500000 -0.468617 0.000001
v 1.490392 -0.468617 0.105977
v 1.461939 -0.468617 0.207880
v 1.415735 -0.468617 0.301794
v 1.353553 -0.468617 0.384111
v 1.277785 -0.468617 0.451666
v 1.191342 -0.468617 0.501865
v 1.097545 -0.468617 0.532777
v 1.000000 -0.468617 0.543214
v 0.902456 -0.468617 0.532777
v 0.808659 -0.468617 0.501865
v 0.722216 -0.468617 0.451667
v 0.646448 -0.468617 0.384112
v 0.584266 -0.468617 0.301795
v 0.538061 -0.468617 0.207881
v 0.509608 -0.468617 0.105978
v 0.500000 -0.468617 0.000002
v 0.509607 -0.468617 -0.105973
v 0.538059 -0.468617 -0.207877
v 0.584264 -0.468617 -0.301791
v 0.646445 -0.468617 -0.384108
v 0.722212 -0.468617 -0.451665
v 0.808655 -0.468617 -0.501863
v 0.902451 -0.468617 -0.532776
v 0.999996 -0.468617 -0.543214
v 1.097541 -0.468617 -0.532778
v 1.191338 -0.468617 -0.501866
v 1.277782 -0.468617 -0.451669
v 1.000000 -0.954732 0.000000
v 1.000000 -0.468617 0.000000
vn -0.000000 -1.000000 0.000000
vn -0.000000 1.000000 -0.000000
vn -0.000000 -1.000000 0.000001
vn 0.797931 -0.000000 -0.602749
vn 0.897284 -0.000000 -0.441453
vn 0.963160 0.000000 -0.268928
vn 0.995916 -0.000000 -0.090284
vn 0.995916 0.000000 0.090287
vn 0.963160 0.000000 0.268929
vn 0.897284 -0.000000 0.441454
vn 0.797930 -0.000000 0.602750
vn 0.665497 -0.000000 0.746400
vn 0.502176 -0.000000 0.864765
vn 0.313004 -0.000000 0.949752
vn 0.106397 0.000000 0.994324
vn -0.106396 0.000000 0.994324
vn -0.313004 -0.000000 0.949752
vn -0.502176 -0.000000 0.864766
vn -0.665497 0.000000 0.746401
vn -0.797930 0.000000 0.602750
vn -0.897283 0.000000 0.441455
vn -0.963160 0.000000 0.268929
vn -0.995916 -0.000000 0.090287
vn -0.995916 0.000000 -0.090284
vn -0.963161 0.000000 -0.268927
vn -0.897285 -0.000000 -0.441452
vn -0.797932 -0.000000 -0.602748
vn -0.665499 -0.000000 -0.746399
vn -0.502179 -0.000000 -0.864764
vn -0.313007 -0.000000 -0.949751
vn -0.106399 -0.000000 -0.994323
vn 0.106393 -0.000000 -0.994324
vn 0.313002 -0.000000 -0.949753
vn 0.502173 0.000000 -0.864767
vn 0.665497 0.000001 -0.746401
usemtl Material.001
s off
f 65//1 1//1 2//1
f 66//2 34//2 33//2
f 65//1 2//1 3//1
f 66//2 35//2 34//2
f 65//1 3//1 4//1
f 66//2 36//2 35//2
f 65//1 4//1 5//1
f 66//2 37//2 36//2
f 65//3 5//3 6//3
f 66//2 38//2 37//2
f 65//1 6//1 7//1
f 66//2 39//2 38//2
f 65//1 7//1 8//1
f 66//2 40//2 39//2
f 65//1 8//1 9//1
f 66//2 41//2 40//2
f 65//1 9//1 10//1
f 66//2 42//2 41//2
f 65//1 10//1 11//1
f 66//2 43//2 42//2
f 65//1 11//1 12//1
f 66//2 44//2 43//2
f 65//1 12//1 13//1
f 66//2 45//2 44//2
f 65//1 13//1 14//1
f 66//2 46//2 45//2
f 65//1 14//1 15//1
f 66//2 47//2 46//2
f 65//1 15//1 16//1
f 66//2 48//2 47//2
f 65//1 16//1 17//1
f 66//2 49//2 48//2
f 65//1 17//1 18//1
f 66//2 50//2 49//2
f 65//1 18//1 19//1
f 66//2 51//2 50//2
f 65//1 19//1 20//1
f 66//2 52//2 51//2
f 65//3 20//3 21//3
f 66//2 53//2 52//2
f 65//1 21//1 22//1
f 66//2 54//2 53//2
f 65//1 22//1 23//1
f 66//2 55//2 54//2
f 65//1 23//1 24//1
f 66//2 56//2 55//2
f 65//1 24//1 25//1
f 66//2 57//2 56//2
f 65//1 25//1 26//1
f 66//2 58//2 57//2
f 65//1 26//1 27//1
f 66//2 59//2 58//2
f 65//1 27//1 28//1
f 66//2 60//2 59//2
f 65//1 28//1 29//1
f 66//2 61//2 60//2
f 65//1 29//1 30//1
f 66//2 62//2 61//2
f 65//1 30//1 31//1
f 66//2 63//2 62//2
f 65//1 31//1 32//1
f 66//2 64//2 63//2
f 32//1 1//1 65//1
f 66//2 33//2 64//2
f 1//4 33//4 34//4 2//4
f 2//5 34//5 35//5 3//5
f 3//6 35//6 36//6 4//6
f 4//7 36//7 37//7 5//7
f 5//8 37//8 38//8 6//8
f 6//9 38//9 39//9 7//9
f 7//10 39//10 40//10 8//10
f 8//11 40//11 41//11 9//11
f 9//12 41//12 42//12 10//12
f 10//13 42//13 43//13 11//13
f 11//14 43//14 44//14 12//14
f 12//15 44//15 45//15 13//15
f 13//16 45//16 46//16 14//16
f 14//17 46//17 47//17 15//17
f 15//18 47//18 48//18 16//18
f 16//19 48//19 49//19 17//19
f 17//20 49//20 50//20 18//20
f 18//21 50//21 51//21 19//21
f 19//22 51//22 52//22 20//22
f 20//23 52//23 53//23 21//23
f 21//24 53//24 54//24 22//24
f 22//25 54//25 55//25 23//25
f 23//26 55//26 56//26 24//26
f 24//27 56//27 57//27 25//27
f 25//28 57//28 58//28 26//28
f 26//29 58//29 59//29 27//29
f 27//30 59//30 60//30 28//30
f 28//31 60//31 61//31 29//31
f 29//32 61//32 62//32 30//32
f 30//33 62//33 63//33 31//33
f 31//34 63//34 64//34 32//34
f 33//35 1//35 32//35 64//35
v -0.646447 -0.954732 -0.384111
v -0.584265 -0.954732 -0.301794
v -0.538060 -0.954732 -0.207879
v -0.509607 -0.954732 -0.105976
v -0.500000 -0.954732 0.000000
v -0.509607 -0.954732 0.105976
v -0.538060 -0.954732 0.207879
v -0.584265 -0.954732 0.301794
v -0.646447 -0.954732 0.384111
v -0.722215 -0.954732 0.451666
v -0.808658 -0.954732 0.501865
v -0.902455 -0.954732 0.532777
v -1.000000 -0.954732 0.543215
v -1.097545 -0.954732 0.532777
v -1.191342 -0.954732 0.501865
v -1.277785 -0.954732 0.451666
v -1.353554 -0.954732 0.384110
v -1.415735 -0.954732 0.301794
v -1.461940 -0.954732 0.207879
v -1.490393 -0.954732 0.105975
v -1.500000 -0.954732 -0.000000
v -1.490393 -0.954732 -0.105976
v -1.461940 -0.954732 -0.207880
v -1.415735 -0.954732 -0.301794
v -1.353553 -0.954732 -0.384111
v -1.277785 -0.954732 -0.451667
v -1.191341 -0.954732 -0.501865
v -1.097544 -0.954732 -0.532777
v -0.999999 -0.954732 -0.543214
v -0.902454 -0.954732 -0.532777
v -0.808657 -0.954732 -0.501864
v -0.722214 -0.954732 -0.451666
v -0.646446 -0.468617 -0.384110
v -0.584265 -0.468617 -0.301793
v -0.538060 -0.468617 -0.207878
v -0.509607 -0.468617 -0.105975
v -0.500000 -0.468617 0.000001
v -0.509608 -0.468617 0.105977
v -0.538061 -0.468617 0.207880
v -0.584265 -0.468617 0.301794
v -0.646447 -0.468617 0.384111
v -0.722215 -0.468617 0.451666
v -0.808658 -0.468617 0.501865
v -0.902455 -0.468617 0.532777
v -1.000000 -0.468617 0.543214
v -1.097545 -0.468617 0.532777
v -1.191341 -0.468617 0.501865
v -1.277784 -0.468617 0.451667
v -1.353552 -0.468617 0.384112
v -1.415734 -0.468617 0.301795
v -1.461939 -0.468617 0.207881
v -1.490392 -0.468617 0.105978
v -1.500000 -0.468617 0.000002
v -1.490393 -0.468617 -0.105973
v -1.461941 -0.468617 -0.207877
v -1.415736 -0.468617 -0.301791
v -1.353555 -0.468617 -0.384108
v -1.277788 -0.468617 -0.451665
v -1.191345 -0.468617 -0.501863
v -1.097548 -0.468617 -0.532776
v -1.000004 -0.468617 -0.543214
v -0.902459 -0.468617 -0.532778
v -0.808662 -0.468617 -0.501866
v -0.722218 -0.468617 -0.451669
v -1.000000 -0.954732 0.000000
v -1.000000 -0.468617 0.000000
vn 0.963160 -0.000000 -0.268927
vn 0.995916 -0.000000 -0.090285
vn 0.665497 -0.000000 0.746401
vn 0.502177 -0.000000 0.864765
vn -0.665496 0.000000 0.746401
vn -0.797930 0.000000 0.602751
vn -0.897284 0.000000 0.441455
vn -0.995916 0.000000 0.090288
vn -0.963161 -0.000000 -0.268926
vn -0.797931 -0.000000 -0.602748
vn -0.106400 -0.000000 -0.994323
usemtl Material.001
s off
f 131//1 67//1 68//1
f 132//2 100//2 99//2
f 131//1 68//1 69//1
f 132//2 101//2 100//2
f 131//1 69//1 70//1
f 132//2 102//2 101//2
f 131//1 70//1 71//1
f 132//2 103//2 102//2
f 131//3 71//3 72//3
f 132//2 104//2 103//2
f 131//1 72//1 73//1
f 132//2 105//2 104//2
f 131//1 73//1 74//1
f 132//2 106//2 105//2
f 131//1 74//1 75//1
f 132//2 107//2 106//2
f 131//1 75//1 76//1
f 132//2 108//2 107//2
f 131//1 76//1 77//1
f 132//2 109//2 108//2
f 131//1 77//1 78//1
f 132//2 110//2 109//2
f 131//1 78//1 79//1
f 132//2 111//2 110//2
f 131//1 79//1 80//1
f 132//2 112//2 111//2
f 131//1 80//1 81//1
f 132//2 113//2 112//2
f 131//1 81//1 82//1
f 132//2 114//2 113//2
f 131//1 82//1 83//1
f 132//2 115//2 114//2
f 131//1 83//1 84//1
f 132//2 116//2 115//2
f 131//1 84//1 85//1
f 132//2 117//2 116//2
f 131//1 85//1 86//1
f 132//2 118//2 117//2
f 131//3 86//3 87//3
f 132//2 119//2 118//2
f 131//1 87//1 88//1
f 132//2 120//2 119//2
f 131//1 88//1 89//1
f 132//2 121//2 120//2
f 131//1 89//1 90//1
f 132//2 122//2 121//2
f 131//1 90//1 91//1
f 132//2 123//2 122//2
f 131//1 91//1 92//1
f 132//2 124//2 123//2
f 131//1 92//1 93//1
f 132//2 125//2 124//2
f 131//1 93//1 94//1
f 132//2 126//2 125//2
f 131//1 94//1 95//1
f 132//2 127//2 126//2
f 131//1 95//1 96//1
f 132//2 128//2 127//2
f 131//1 96//1 97//1
f 132//2 129//2 128//2
f 131//1 97//1 98//1
f 132//2 130//2 129//2
f 98//1 67//1 131//1
f 132//2 99//2 130//2
f 67//4 99//4 100//4 68//4
f 68//5 100//5 101//5 69//5
f 69//36 101//36 102//36 70//36
f 70//37 102//37 103//37 71//37
f 71//8 103//8 104//8 72//8
f 72//9 104//9 105//9 73//9
f 73//10 105//10 106//10 74//10
f 74//11 106//11 107//11 75//11
f 75//38 107//38 108//38 76//38
f 76//39 108//39 109//39 77//39
f 77//14 109//14 110//14 78//14
f 78//15 110//15 111//15 79//15
f 79//16 111//16 112//16 80//16
f 80//17 112//17 113//17 81//17
f 81//18 113//18 114//18 82//18
f 82//40 114//40 115//40 83//40
f 83//41 115//41 116//41 84//41
f 84//42 116//42 117//42 85//42
f 85//22 117//22 118//22 86//22
f 86//43 118//43 119//43 87//43
f 87//24 119//24 120//24 88//24
f 88//44 120//44 121//44 89//44
f 89//26 121//26 122//26 90//26
f 90//45 122//45 123//45 91//45
f 91//28 123//28 124//28 92//28
f 92//29 124//29 125//29 93//29
f 93//30 125//30 126//30 94//30
f 94//46 126//46 127//46 95//46
f 95//32 127//32 128//32 96//32
f 96//33 128//33 129//33 97//33
f 97//34 129//34 130//34 98//34
f 99//35 67//35 98//35 130//35
v 1.975347 -0.467782 -1.000000
v 1.975347 -0.467782 1.000000
v -1.975347 -0.467782 1.000000
v -1.975346 -0.467782 -1.000000
v 1.975348 0.502780 -0.999999
v 1.975346 0.502780 1.000001
v -1.975348 0.502780 1.000000
v -1.975347 0.502780 -1.000000
vn 1.000000 0.000000 0.000001
vn -0.000000 -0.000000 1.000000
vn -1.000000 -0.000001 -0.000000
vn 0.000000 0.000000 -1.000000
usemtl Material
s off
f 133//1 134//1 135//1 136//1
f 137//2 140//2 139//2 138//2
f 133//47 137//47 138//47 134//47
f 134//48 138//48 139//48 135//48
f 135//49 139//49 140//49 136//49
f 137//50 133//50 136//50 140//50
